<svg xmlns="http://www.w3.org/2000/svg" viewBox="0 0 200 300" width="200" height="300">
  <!-- Stem -->
  <rect x="94" y="125" width="12" height="135" rx="6" fill="#5a9a3a"/>
  <!-- Left leaf -->
  <path d="M94 175 Q56 158 50 136 Q73 145 94 162 Z" fill="#4d8f2e"/>
  <!-- Right leaf -->
  <path d="M106 208 Q144 190 150 168 Q127 178 106 194 Z" fill="#4d8f2e"/>
  <!-- 12 petals (half bloom) -->
  <g transform="translate(100, 100)">
    <ellipse cx="0" cy="-40" rx="8" ry="19" fill="#ffd600" transform="rotate(0)"/>
    <ellipse cx="0" cy="-40" rx="8" ry="19" fill="#ffc200" transform="rotate(30)"/>
    <ellipse cx="0" cy="-40" rx="8" ry="19" fill="#ffd600" transform="rotate(60)"/>
    <ellipse cx="0" cy="-40" rx="8" ry="19" fill="#ffc200" transform="rotate(90)"/>
    <ellipse cx="0" cy="-40" rx="8" ry="19" fill="#ffd600" transform="rotate(120)"/>
    <ellipse cx="0" cy="-40" rx="8" ry="19" fill="#ffc200" transform="rotate(150)"/>
    <ellipse cx="0" cy="-40" rx="8" ry="19" fill="#ffd600" transform="rotate(180)"/>
    <ellipse cx="0" cy="-40" rx="8" ry="19" fill="#ffc200" transform="rotate(210)"/>
    <ellipse cx="0" cy="-40" rx="8" ry="19" fill="#ffd600" transform="rotate(240)"/>
    <ellipse cx="0" cy="-40" rx="8" ry="19" fill="#ffc200" transform="rotate(270)"/>
    <ellipse cx="0" cy="-40" rx="8" ry="19" fill="#ffd600" transform="rotate(300)"/>
    <ellipse cx="0" cy="-40" rx="8" ry="19" fill="#ffc200" transform="rotate(330)"/>
    <circle cx="0" cy="0" r="24" fill="#3b1a05"/>
    <circle cx="-5" cy="-5" r="18" fill="#ffffff" opacity="0.05"/>
  </g>
</svg>
